<?xml version="1.0" encoding="UTF-8" standalone="no"?>
<!-- Created with Inkscape (http://www.inkscape.org/) -->

<svg
   width="64"
   height="64"
   viewBox="0 0 16.933333 16.933334"
   version="1.1"
   id="svg8"
   inkscape:version="1.4.2 (1:1.4.2+202505120738+ebf0e940d0)"
   sodipodi:docname="icon.svg"
   xmlns:inkscape="http://www.inkscape.org/namespaces/inkscape"
   xmlns:sodipodi="http://sodipodi.sourceforge.net/DTD/sodipodi-0.dtd"
   xmlns:xlink="http://www.w3.org/1999/xlink"
   xmlns="http://www.w3.org/2000/svg"
   xmlns:svg="http://www.w3.org/2000/svg"
   xmlns:rdf="http://www.w3.org/1999/02/22-rdf-syntax-ns#"
   xmlns:cc="http://creativecommons.org/ns#"
   xmlns:dc="http://purl.org/dc/elements/1.1/">
  <defs
     id="defs2">
    <clipPath
       clipPathUnits="userSpaceOnUse"
       id="clipPath874">
      <g
         inkscape:label="Clip"
         id="use876"
         style="stroke-width:1.5">
        <rect
           style="fill:#0e0421;stroke:#488bd4;stroke-width:0.396874;-inkscape-stroke:none;paint-order:stroke fill markers;stop-color:#000000"
           id="rect1"
           width="508"
           height="285.75"
           x="0"
           y="11.249975" />
      </g>
    </clipPath>
    <clipPath
       clipPathUnits="userSpaceOnUse"
       id="clipPath19">
      <use
         x="0"
         y="0"
         xlink:href="#g18"
         id="use19" />
    </clipPath>
    <inkscape:path-effect
       effect="fillet_chamfer"
       id="path-effect22"
       is_visible="true"
       lpeversion="1"
       nodesatellites_param="F,0,0,1,0,0.13229166,0,1 @ F,0,0,1,0,0.13229166,0,1 @ F,0,0,1,0,0.099005178,0,1 @ F,0,0,1,0,0.13229166,0,1 @ F,0,0,1,0,0.13229166,0,1 @ F,0,0,1,0,0.18183951,0,1"
       radius="0.5"
       unit="px"
       method="auto"
       mode="F"
       chamfer_steps="1"
       flexible="false"
       use_knot_distance="true"
       apply_no_radius="true"
       apply_with_radius="true"
       only_selected="false"
       hide_knots="false" />
    <inkscape:path-effect
       effect="fillet_chamfer"
       id="path-effect23"
       is_visible="true"
       lpeversion="1"
       nodesatellites_param="F,0,0,1,0,0.10583333,0,1 @ F,0,0,1,0,0.10583333,0,1 @ F,0,0,1,0,0.10583333,0,1 @ F,0,0,1,0,0.10583333,0,1"
       radius="0.4"
       unit="px"
       method="auto"
       mode="F"
       chamfer_steps="1"
       flexible="false"
       use_knot_distance="true"
       apply_no_radius="true"
       apply_with_radius="true"
       only_selected="false"
       hide_knots="false" />
  </defs>
  <sodipodi:namedview
     id="base"
     pagecolor="#ffffff"
     bordercolor="#666666"
     borderopacity="1.0"
     inkscape:pageopacity="0.0"
     inkscape:pageshadow="2"
     inkscape:zoom="0.80833333"
     inkscape:cx="960"
     inkscape:cy="540"
     inkscape:document-units="px"
     inkscape:current-layer="layer1"
     showgrid="false"
     units="px"
     inkscape:window-width="1920"
     inkscape:window-height="1012"
     inkscape:window-x="0"
     inkscape:window-y="32"
     inkscape:window-maximized="1"
     inkscape:pagecheckerboard="1"
     inkscape:snap-page="true"
     inkscape:snap-bbox="true"
     inkscape:bbox-paths="false"
     inkscape:bbox-nodes="true"
     inkscape:snap-bbox-edge-midpoints="true"
     inkscape:showpageshadow="0"
     inkscape:deskcolor="#d1d1d1">
    <inkscape:grid
       type="xygrid"
       id="grid27"
       originy="-111.65417"
       spacingx="21.166667"
       spacingy="21.166667"
       empspacing="4"
       originx="-290.2479"
       units="px" />
  </sodipodi:namedview>
  <metadata
     id="metadata5">
    <rdf:RDF>
      <cc:Work
         rdf:about="">
        <dc:format>image/svg+xml</dc:format>
        <dc:type
           rdf:resource="http://purl.org/dc/dcmitype/StillImage" />
      </cc:Work>
    </rdf:RDF>
  </metadata>
  <g
     inkscape:label="Layer 1"
     inkscape:groupmode="layer"
     id="layer1"
     transform="translate(-290.24792,-122.90414)">
    <g
       id="g19"
       clip-path="url(#clipPath19)"
       inkscape:label="IconMask"
       transform="matrix(2.0000001,0,0,2.0000001,305.05183,374.57063)"
       style="display:inline;stroke-width:0.5">
      <g
         inkscape:label="Clip"
         id="g18"
         style="stroke-width:0.5">
        <rect
           style="font-variation-settings:'wght' 700;fill:#ae6dff;fill-opacity:1;stroke:none;stroke-width:0.793749;stroke-linecap:round;stroke-dashoffset:1;paint-order:fill markers stroke"
           id="rect15"
           width="8.4666662"
           height="8.4666662"
           x="-7.4019551"
           y="-125.83324"
           ry="1.0583333" />
      </g>
      <path
         id="path3"
         style="display:inline;fill:#8e3afe;fill-opacity:1;stroke:none;stroke-width:0.132291"
         d="m 4.997047,-124.09313 -1.0767451,-0.50052 -1.2132311,1.4022 c -0.4380379,-0.12844 -0.8842777,-0.21158 -1.3325395,-0.25085 l -0.70884889,-1.72705 -1.17310089,0.10139 -0.33035829,1.7924 c -0.44797813,0.10909 -0.88457113,0.26465 -1.30360593,0.46532 l -1.4412369,-1.13481 -0.9538714,0.67591 0.6064525,1.71365 c -0.1635296,0.16275 -0.3198767,0.33622 -0.4719717,0.51596 -0.1493637,0.18241 -0.287741,0.36916 -0.4150951,0.56153 l -1.7925454,-0.2709 -0.4781895,1.0677 1.3840706,1.20491 c -0.1165675,0.45119 -0.1863663,0.91182 -0.207971,1.37391 l -1.6906185,0.666 0.1236833,1.17396 1.8237005,0.37007 c 0.1235478,0.43428 0.2897423,0.85825 0.4984721,1.26572 l -1.1407052,1.46181 0.6941263,0.96709 1.7953729,-0.60546 c 0.1571418,0.15145 0.320033,0.29908 0.4937708,0.43806 l -8.326e-4,7.5e-4 2.47897933,2.05324 2.91219447,-3.54332 -2.47897951,-2.05325 -0.90530129,1.10225 c -1.5598312,-1.29175 -1.8019683,-3.58328 -0.5400263,-5.1189 1.26193161,-1.53533 3.5489721,-1.73246 5.1087644,-0.44095 l 8.177e-4,-7.4e-4 2.4789788,2.05324 2.0068929,-2.44108 -2.4797952,-2.05243 c -0.1692195,-0.14444 -0.3429913,-0.27823 -0.5218734,-0.40349 z"
         sodipodi:nodetypes="cccccccccccccccccccccccccccccccccccccc" />
      <g
         id="g35"
         style="stroke-width:0.5">
        <path
           style="font-variation-settings:'wght' 700;baseline-shift:baseline;display:inline;overflow:visible;opacity:1;vector-effect:none;fill:#ffffff;stroke-width:0.551125;stroke-linecap:square;stroke-dashoffset:1;paint-order:fill markers stroke;enable-background:accumulate;stop-color:#000000;stop-opacity:1"
           d="m -6.5584463,-122.81671 -0.267873,0.25647 a 0.13228136,0.13228136 91.243338 0 0 -0.00406,0.18704 l 0.6779199,0.70794 c 0.037817,0.0395 0.037911,0.10361 2.018e-4,0.14321 -0.3561011,0.37392 -0.5163518,0.54124 -0.6776407,0.70821 -0.050761,0.0525 -0.049195,0.13605 0.00358,0.18658 l 0.267873,0.25647 c 0.052774,0.0505 0.1367222,0.0489 0.187432,-0.004 0.3482263,-0.3612 0.6940355,-0.72473 1.0403831,-1.08774 0.069325,-0.0727 0.069268,-0.19035 -1.585e-4,-0.26292 -0.34685,-0.36252 -0.693632,-0.72511 -1.0406074,-1.08751 -0.050528,-0.0528 -0.1342752,-0.0546 -0.1870492,-0.004 z"
           id="path16"
           inkscape:path-effect="#path-effect22"
           inkscape:original-d="m -6.4628906,-122.9082 -0.4589844,0.43945 0.8378906,0.875 c -0.4759109,0.49987 -0.627345,0.65759 -0.8378906,0.875 l 0.4589844,0.43945 c 0.4214419,-0.43606 0.838973,-0.87589 1.2578125,-1.31445 -0.4192624,-0.43816 -0.8383793,-0.87646 -1.2578125,-1.31445 z"
           sodipodi:nodetypes="ccccccc"
           transform="matrix(0.90723247,0,0,0.90723247,-0.44563589,-11.215499)" />
        <path
           style="font-variation-settings:'wght' 700;baseline-shift:baseline;display:inline;overflow:visible;opacity:1;vector-effect:none;fill:#ffffff;stroke-width:0.513115;stroke-linecap:square;stroke-dashoffset:1;paint-order:fill markers stroke;enable-background:accumulate;stop-color:#000000;stop-opacity:1"
           d="m -5.5136719,-120.73401 v 0.21216 a 0.10583333,0.10583333 45 0 0 0.1058333,0.10583 l 0.8918491,0 a 0.10583333,0.10583333 135 0 0 0.1058333,-0.10583 v -0.21216 a 0.10583333,0.10583333 45 0 0 -0.1058333,-0.10583 h -0.8918491 a 0.10583333,0.10583333 135 0 0 -0.1058333,0.10583 z"
           id="path17-1-7"
           inkscape:path-effect="#path-effect23"
           inkscape:original-d="m -5.5136719,-120.83984 v 0.42382 h 1.1035157 v -0.42382 z"
           sodipodi:nodetypes="ccccc"
           transform="matrix(0.97444203,0,0,0.97444203,-0.03388729,-3.0375432)" />
        <text
           xml:space="preserve"
           style="font-style:normal;font-variant:normal;font-weight:800;font-stretch:normal;font-size:3.10913px;line-height:normal;font-family:Montserrat;-inkscape-font-specification:'Montserrat Ultra-Bold';font-variant-ligatures:normal;font-variant-caps:normal;font-variant-numeric:normal;font-variant-east-asian:normal;text-align:start;text-decoration-color:#000000;letter-spacing:0px;writing-mode:lr-tb;direction:ltr;text-anchor:start;fill:#ffffff;fill-opacity:1;stroke:none;stroke-width:0.264583;stroke-linecap:round;stroke-linejoin:round;stroke-dasharray:none;stroke-dashoffset:1;stroke-opacity:1;paint-order:fill markers stroke"
           x="-4.3967566"
           y="-119.81814"
           id="text17"
           transform="scale(0.99493755,1.0050882)"><tspan
             sodipodi:role="line"
             id="tspan17"
             style="font-style:normal;font-variant:normal;font-weight:800;font-stretch:normal;font-size:3.10913px;font-family:Montserrat;-inkscape-font-specification:'Montserrat Ultra-Bold';font-variant-ligatures:normal;font-variant-caps:normal;font-variant-numeric:normal;font-variant-east-asian:normal;fill:#ffffff;fill-opacity:1;stroke:none;stroke-width:0.264583;stroke-dasharray:none"
             x="-4.3967566"
             y="-119.81814">GD</tspan></text>
      </g>
    </g>
  </g>
</svg>
