<?xml version="1.0" encoding="UTF-8" standalone="no"?>
<!DOCTYPE svg PUBLIC "-//W3C//DTD SVG 1.1//EN"
 "http://www.w3.org/Graphics/SVG/1.1/DTD/svg11.dtd">
<!-- Generated by graphviz version 2.43.0 (0)
 -->
<!-- Title: %3 Pages: 1 -->
<svg width="308pt" height="188pt"
 viewBox="0.00 0.00 308.15 188.00" xmlns="http://www.w3.org/2000/svg" xmlns:xlink="http://www.w3.org/1999/xlink">
<g id="graph0" class="graph" transform="scale(1 1) rotate(0) translate(4 184)">
<title>%3</title>
<polygon fill="white" stroke="transparent" points="-4,4 -4,-184 304.15,-184 304.15,4 -4,4"/>
<!-- 99528862475504 -->
<g id="node1" class="node">
<title>99528862475504</title>
<ellipse fill="none" stroke="black" cx="148" cy="-162" rx="41.69" ry="18"/>
<text text-anchor="middle" x="148" y="-158.3" font-family="Times,serif" font-size="14.00">source</text>
</g>
<!-- 99528862761392 -->
<g id="node2" class="node">
<title>99528862761392</title>
<ellipse fill="none" stroke="black" cx="148" cy="-90" rx="81.79" ry="18"/>
<text text-anchor="middle" x="148" y="-86.3" font-family="Times,serif" font-size="14.00">class_definition</text>
</g>
<!-- 99528862475504&#45;&#45;99528862761392 -->
<g id="edge1" class="edge">
<title>99528862475504&#45;&#45;99528862761392</title>
<path fill="none" stroke="black" d="M148,-143.7C148,-132.85 148,-118.92 148,-108.1"/>
</g>
<!-- 99528867231136 -->
<g id="node3" class="node">
<title>99528867231136</title>
<polygon fill="none" stroke="black" points="54,-36 0,-36 0,0 54,0 54,-36"/>
<text text-anchor="middle" x="27" y="-14.3" font-family="Times,serif" font-size="14.00">class</text>
</g>
<!-- 99528862761392&#45;&#45;99528867231136 -->
<g id="edge2" class="edge">
<title>99528862761392&#45;&#45;99528867231136</title>
<path fill="none" stroke="black" d="M120.24,-72.94C100.42,-61.48 73.9,-46.13 54.21,-34.74"/>
</g>
<!-- 99528867231144 -->
<g id="node4" class="node">
<title>99528867231144</title>
<ellipse fill="none" stroke="black" cx="108" cy="-18" rx="36.29" ry="18"/>
<text text-anchor="middle" x="108" y="-14.3" font-family="Times,serif" font-size="14.00">name</text>
</g>
<!-- 99528862761392&#45;&#45;99528867231144 -->
<g id="edge3" class="edge">
<title>99528862761392&#45;&#45;99528867231144</title>
<path fill="none" stroke="black" d="M138.32,-72.05C132.03,-61.05 123.86,-46.76 117.59,-35.79"/>
</g>
<!-- 99528867231152 -->
<g id="node5" class="node">
<title>99528867231152</title>
<polygon fill="none" stroke="black" points="216,-36 162,-36 162,0 216,0 216,-36"/>
<text text-anchor="middle" x="189" y="-14.3" font-family="Times,serif" font-size="14.00">:</text>
</g>
<!-- 99528862761392&#45;&#45;99528867231152 -->
<g id="edge4" class="edge">
<title>99528862761392&#45;&#45;99528867231152</title>
<path fill="none" stroke="black" d="M157.92,-72.05C164.28,-61.21 172.49,-47.18 178.88,-36.28"/>
</g>
<!-- 99528867231160 -->
<g id="node6" class="node">
<title>99528867231160</title>
<ellipse fill="none" stroke="black" cx="267" cy="-18" rx="33.29" ry="18"/>
<text text-anchor="middle" x="267" y="-14.3" font-family="Times,serif" font-size="14.00">body</text>
</g>
<!-- 99528862761392&#45;&#45;99528867231160 -->
<g id="edge5" class="edge">
<title>99528862761392&#45;&#45;99528867231160</title>
<path fill="none" stroke="black" d="M175.3,-72.94C196.57,-60.43 225.7,-43.29 245.38,-31.72"/>
</g>
</g>
</svg>
